<svg xmlns="http://www.w3.org/2000/svg" viewBox="0 0 512 512" role="img" aria-labelledby="title desc">
  <title id="title">Olvídalo app icon</title>
  <desc id="desc">A round scorekeeper mark with fair and out colors.</desc>
  <rect width="512" height="512" rx="112" fill="#16463f"/>
  <circle cx="256" cy="256" r="172" fill="#f7f9f7"/>
  <path d="M256 84a172 172 0 0 1 149 86l-149 86Z" fill="#28a36a"/>
  <path d="M405 170a172 172 0 0 1 0 172l-149-86Z" fill="#d94b3d"/>
  <path d="M405 342a172 172 0 0 1-149 86V256Z" fill="#f2b84b"/>
  <path d="M256 428a172 172 0 0 1-149-86l149-86Z" fill="#2477a3"/>
  <path d="M107 342a172 172 0 0 1 0-172l149 86Z" fill="#1f6d61"/>
  <circle cx="256" cy="256" r="74" fill="#16463f"/>
  <text x="256" y="282" text-anchor="middle" font-family="Arial, Helvetica, sans-serif" font-size="78" font-weight="800" fill="#ffffff">O</text>
</svg>
